<?xml version="1.0" standalone="no"?>
<!DOCTYPE svg PUBLIC "-//W3C//DTD SVG 20010904//EN"
 "http://www.w3.org/TR/2001/REC-SVG-20010904/DTD/svg10.dtd">
<svg version="1.0" xmlns="http://www.w3.org/2000/svg"
 width="700.000000pt" height="700.000000pt" viewBox="0 0 700.000000 700.000000"
 preserveAspectRatio="xMidYMid meet">
<metadata>
Created by potrace 1.14, written by Peter Selinger 2001-2017
</metadata>
<g transform="translate(0.000000,700.000000) scale(0.100000,-0.100000)"
fill="#000000" stroke="none">
<path d="M3307 6854 c-1 -1 -51 -4 -112 -8 -60 -3 -119 -7 -130 -10 -11 -2
-51 -7 -90 -10 -38 -4 -77 -9 -85 -11 -8 -2 -32 -6 -52 -9 -60 -9 -226 -46
-318 -71 -367 -100 -701 -253 -1020 -468 -88 -60 -222 -158 -240 -177 -3 -3
-27 -23 -55 -45 -72 -57 -322 -304 -377 -372 -25 -32 -55 -67 -65 -78 -31 -33
-156 -204 -214 -295 -275 -423 -444 -875 -523 -1400 -28 -193 -30 -769 -2
-915 2 -11 7 -40 10 -65 6 -48 7 -50 32 -175 95 -478 309 -953 614 -1360 124
-164 162 -208 335 -380 371 -371 821 -647 1329 -817 84 -27 311 -89 381 -102
195 -38 302 -51 495 -62 58 -3 124 -7 148 -9 26 -2 42 1 43 8 3 34 4 1305 1
1318 -3 13 -18 17 -70 18 -37 1 -80 3 -97 5 -16 2 -57 7 -90 11 -32 4 -67 8
-76 10 -9 2 -32 6 -50 9 -215 36 -507 147 -687 262 -29 19 -55 34 -58 34 -9 0
-157 114 -229 174 -444 379 -714 960 -718 1551 -1 89 10 274 17 296 3 8 7 34
10 59 2 25 10 68 16 95 6 28 13 59 16 69 2 11 17 64 34 119 144 462 441 854
851 1124 209 137 508 259 729 297 23 4 79 14 125 22 34 7 206 17 285 17 77 0
260 -12 270 -18 3 -1 25 -6 50 -9 369 -50 781 -247 1069 -511 228 -209 385
-428 511 -716 73 -165 141 -411 156 -564 3 -38 8 -79 11 -90 2 -11 4 -824 4
-1807 l1 -1788 672 0 672 0 -2 1813 c-1 996 -4 1830 -7 1852 -3 22 -9 71 -12
110 -4 38 -8 77 -10 86 -2 9 -6 40 -10 70 -4 30 -18 108 -31 174 -163 806
-617 1531 -1274 2036 -284 219 -630 404 -967 518 -161 55 -351 105 -474 126
-13 2 -52 9 -86 15 -87 15 -211 29 -318 36 -89 5 -334 11 -338 8z"/>
<path d="M3217 4029 c-212 -52 -403 -210 -495 -409 -50 -107 -66 -182 -66
-310 0 -140 16 -209 81 -340 38 -79 61 -110 132 -181 47 -47 98 -92 113 -100
14 -8 50 -27 79 -42 233 -123 543 -100 763 57 137 98 262 277 290 418 3 13 9
46 15 73 15 76 6 229 -19 314 -64 223 -224 402 -440 489 -30 12 -64 24 -75 26
-11 3 -40 9 -65 15 -71 17 -225 12 -313 -10z"/>
</g>
</svg>
