<svg xmlns="http://www.w3.org/2000/svg" fill="none" viewBox="0 0 83 63">
  <g clip-path="url(#a)">
    <path fill="#229E45" fill-rule="evenodd" d="M.7.68h81.97v61.48H.7V.68Z" clip-rule="evenodd"/>
    <path fill="#F8E509" fill-rule="evenodd" d="m41.86 56.53 38.62-25.07L41.63 6.32 2.9 31.52l38.97 25Z" clip-rule="evenodd"/>
    <path fill="#2B49A3" fill-rule="evenodd" d="M58.7 31.42a16.32 16.32 0 1 1-32.65-.03 16.32 16.32 0 0 1 32.64.03Z" clip-rule="evenodd"/>
    <path fill="#FFFFEF" fill-rule="evenodd" d="m36.98 41.2-.5-.3-.52.26.11-.58-.4-.43.57-.07.28-.5.25.53.56.1-.42.39m11.01 3.36-.5-.3-.51.27.1-.58-.4-.42.58-.07.27-.52.26.53.56.1-.43.4m-4.64-3.84-.44-.25-.45.23.1-.5-.35-.37.51-.06.23-.46.2.48.5.09-.38.34m11.14-1.09-.43-.25-.45.23.1-.5-.34-.36.5-.05.23-.45.2.46.49.1-.37.32m-11.18-2.81-.52-.29-.5.26.1-.59-.4-.42.57-.07.27-.52.26.54.56.1-.43.41m-13.4-4.48-.51-.28-.52.25.13-.59-.42-.42.59-.06.26-.53.25.54.56.1-.42.4m1.7 7.32-.5-.29-.52.26.12-.58-.41-.42.57-.08.27-.51.26.54.56.1-.42.4m16.9-8.62-.46-.26-.46.23.1-.51-.35-.39.51-.06.24-.46.22.48.51.1-.38.34m-.86 4.9-.34-.2-.38.18.08-.41-.28-.3.4-.05.2-.35.17.38.38.06-.28.29m-18.21 6.45-.35-.2-.35.18.08-.39-.27-.28.39-.05.18-.35.16.36.39.08-.3.25m25.64 1.96-.28-.14-.28.13.07-.3-.22-.2.3-.04.16-.25.13.25.32.07-.25.19" clip-rule="evenodd"/>
    <path fill="#FFFFEF" fill-rule="evenodd" d="m28.79 37.52-.35-.2-.35.18.08-.39-.27-.28.39-.05.18-.35.16.36.39.08-.3.25" clip-rule="evenodd"/>
    <path fill="#FFFFEF" fill-rule="evenodd" d="m28.79 37.52-.35-.2-.35.18.08-.39-.27-.28.39-.05.18-.35.16.36.39.08-.3.25m5.42.39-.33-.18-.35.17.08-.39-.27-.28.38-.05.18-.35.17.36.38.07-.3.26m-.6 2.18-.34-.2-.34.19.07-.39-.27-.29.39-.05.18-.35.16.36.39.08-.3.25m11.2-2.84-.34-.2-.35.18.07-.39-.25-.3.38-.03.18-.35.15.36.39.06-.28.27m-3.22.39-.34-.2-.35.19.08-.39-.26-.3.38-.03.18-.36.16.37.38.06-.28.27m-8.81-.74-.22-.13-.22.1.05-.24-.16-.18.24-.02.1-.22.1.23.25.04-.18.16m21.5 5.82-.34-.2-.35.19.08-.39-.27-.3.39-.04.17-.35.17.36.39.08-.3.25m-2.66.77-.29-.18-.29.16.06-.34-.21-.23.32-.04.15-.3.13.32.32.05-.24.23m1.33.3-.26-.16-.27.13.05-.3-.2-.22.3-.03.13-.26.13.26.3.06-.22.2m3.73-2.91-.26-.13-.26.13.07-.3-.2-.22.29-.04.13-.25.12.27.27.05-.2.2m-4.97 5.36-.32-.18-.35.15.08-.36-.26-.25.39-.04.16-.32.16.33.38.07-.3.24m.08 1.82-.3-.18-.31.16.08-.35-.25-.26.35-.05.15-.32.14.33.35.07-.26.25m-2.43-2.96-.24-.15-.26.13.05-.28-.2-.22.29-.03.13-.25.13.25.28.05-.2.2m-2.29.3-.25-.15-.26.13.07-.28-.21-.22.3-.03.12-.25.13.25.27.05-.2.2m-3.9-3.14-.26-.14-.25.12.06-.29-.2-.2.28-.04.13-.26.13.26.28.06-.2.2m.47 7.3-.2-.12-.24.11.05-.25-.16-.18.24-.03.11-.22.1.24.25.03-.18.17m-5.92-11.1-.5-.29-.52.26.11-.58-.4-.42.57-.08.28-.5.25.53.56.1-.42.4" clip-rule="evenodd"/>
    <path fill="#fff" fill-rule="evenodd" d="M57.62 37.3c.32-.83.56-1.68.74-2.55-8.68-7.62-18.35-11.52-30.57-10.72-.45.86-.81 1.76-1.1 2.68A39.1 39.1 0 0 1 57.63 37.3Z" clip-rule="evenodd"/>
    <path fill="#309E3A" d="m53.72 33.01.3.17a.44.44 0 0 0-.04.28c.03.1.1.17.18.22.09.06.18.1.26.09a.2.2 0 0 0 .16-.1.17.17 0 0 0 .03-.1.3.3 0 0 0-.07-.13 1.56 1.56 0 0 0-.19-.24.99.99 0 0 1-.23-.38.47.47 0 0 1 .26-.56c.09-.04.2-.05.3-.03a.9.9 0 0 1 .32.16c.18.12.3.25.34.4a.52.52 0 0 1-.08.43l-.3-.2c.03-.07.04-.15.02-.21-.01-.07-.06-.13-.15-.18a.41.41 0 0 0-.23-.1.13.13 0 0 0-.12.07c-.03.04-.03.08-.01.13.01.05.07.15.2.28.13.13.2.25.26.32a.5.5 0 0 1-.04.54.53.53 0 0 1-.24.2c-.1.04-.2.05-.31.03a1 1 0 0 1-.36-.17c-.2-.12-.3-.26-.35-.42a.7.7 0 0 1 .08-.51l.01.01Zm-1.48-.97.32.17a.44.44 0 0 0-.03.28c.04.09.1.16.18.2.1.07.18.1.26.08.08 0 .13-.04.16-.1a.17.17 0 0 0 .03-.1.2.2 0 0 0-.06-.13 4.44 4.44 0 0 0-.2-.23c-.15-.15-.24-.26-.26-.36a.47.47 0 0 1 .25-.58.49.49 0 0 1 .28-.04.9.9 0 0 1 .34.13c.19.13.3.26.34.4a.53.53 0 0 1-.05.43l-.32-.18c.04-.09.05-.15.03-.21a.37.37 0 0 0-.17-.18.41.41 0 0 0-.24-.08.13.13 0 0 0-.1.06c-.03.04-.03.08-.02.13a.9.9 0 0 0 .22.28c.13.13.22.23.26.31a.5.5 0 0 1 0 .54.54.54 0 0 1-.24.2c-.1.05-.2.06-.3.04a1.02 1.02 0 0 1-.37-.14.77.77 0 0 1-.36-.4.7.7 0 0 1 .05-.52Zm-1.82-.49.93-1.53 1.13.7-.15.26-.82-.52-.2.35.76.47-.16.26-.77-.47-.26.42.86.51-.15.26-1.16-.7h-.01Zm-2.65-2.18.14-.25.7.34-.33.65c-.1.02-.23.03-.38.02a1.2 1.2 0 0 1-.43-.13.99.99 0 0 1-.38-.33.77.77 0 0 1-.13-.45 1.1 1.1 0 0 1 .46-.86.8.8 0 0 1 .46-.14.8.8 0 0 1 .41.13c.2.09.34.22.4.36.07.14.08.3.04.45l-.35-.1a.38.38 0 0 0-.02-.26c-.04-.08-.1-.13-.2-.18a.49.49 0 0 0-.4-.04c-.13.04-.25.15-.34.33-.09.18-.13.35-.09.5a.47.47 0 0 0 .26.3c.06.04.14.06.22.06h.23l.1-.2-.37-.2Zm-11.55-2.85.25-1.8.54.1.14 1.25.5-1.15.54.07-.26 1.77-.34-.05.21-1.4-.56 1.35-.35-.05-.14-1.45-.2 1.41-.33-.05Zm-1.81-.22.17-1.8 1.31.14-.02.3-.96-.09-.04.39.9.09-.04.3-.9-.08-.04.48 1 .1-.02.3-1.36-.13ZM28.43 25.19c0-.2.04-.34.09-.46a.86.86 0 0 1 .4-.4c.14-.04.26-.07.4-.07.26 0 .47.1.63.26a.95.95 0 0 1 .2.7c0 .29-.08.52-.25.68a.83.83 0 0 1-.64.22.85.85 0 0 1-.61-.25.93.93 0 0 1-.22-.68Z"/>
    <path fill="#F7FFFF" d="M28.8 25.19c0 .19.04.34.13.46.09.1.2.16.36.16a.45.45 0 0 0 .35-.14c.1-.1.13-.25.15-.47 0-.2-.03-.36-.13-.46a.45.45 0 0 0-.35-.17.46.46 0 0 0-.36.16c-.1.1-.14.25-.15.46Z"/>
    <path fill="#309E3A" d="m30.54 26.1.03-1.78h.77c.19 0 .32.02.4.06.1.03.16.09.21.17.05.07.08.18.08.3 0 .11-.05.23-.13.32a.58.58 0 0 1-.35.16l.2.15c.05.05.11.16.19.3l.21.35h-.43l-.26-.4-.18-.26a.27.27 0 0 0-.11-.08.64.64 0 0 0-.18-.02h-.08v.74h-.37Z"/>
    <path fill="#fff" d="M30.93 25.08h.25c.18 0 .3 0 .33-.02.04 0 .08-.04.1-.07.03-.02.05-.09.05-.12 0-.08-.02-.13-.06-.16-.02-.04-.07-.06-.12-.07h-.26l-.3-.02v.46Z"/>
    <path fill="#309E3A" d="m32.59 24.4.67.04c.14 0 .25.02.33.04.1.04.19.1.26.18.07.1.12.2.15.3.04.12.05.27.04.43 0 .13-.02.26-.07.39a.79.79 0 0 1-.21.3.64.64 0 0 1-.26.13c-.08.03-.2.03-.32.03l-.68-.04.09-1.8Z"/>
    <path fill="#fff" d="m32.94 24.73-.07 1.19h.49c.06 0 .11-.03.15-.07a.41.41 0 0 0 .1-.16c.03-.08.06-.2.06-.34l-.02-.32a.41.41 0 0 0-.1-.18.35.35 0 0 0-.15-.09l-.3-.03h-.16Z"/>
    <path fill="#309E3A" d="m41.38 27.6.42-1.73.56.12.41.13c.1.05.17.13.2.24.06.1.06.22.03.36-.02.1-.06.2-.12.26a.5.5 0 0 1-.39.18c-.09 0-.22-.03-.38-.06l-.22-.07-.15.67-.36-.1Z"/>
    <path fill="#fff" d="m42.07 26.25-.1.49.19.05c.13.02.23.05.28.04a.24.24 0 0 0 .2-.2c0-.06 0-.11-.02-.16a.26.26 0 0 0-.13-.12l-.24-.06-.17-.04h-.01Z"/>
    <path fill="#309E3A" d="m43.04 28.1.6-1.68.7.25c.2.07.32.13.4.18.06.07.1.13.12.23.01.1.03.2 0 .3a.57.57 0 0 1-.23.28.62.62 0 0 1-.38.04c.05.06.1.13.12.2l.1.35.08.4-.4-.15-.12-.46a2.5 2.5 0 0 0-.1-.3.27.27 0 0 0-.07-.1c-.02-.05-.08-.07-.16-.1l-.07-.02-.26.72-.33-.13Z"/>
    <path fill="#fff" d="m43.73 27.25.25.09c.16.06.27.09.32.09.04 0 .07 0 .11-.04a.19.19 0 0 0 .08-.12.16.16 0 0 0 0-.15.22.22 0 0 0-.1-.11l-.26-.1-.26-.08-.15.42h.01Z"/>
    <path fill="#309E3A" d="M45.14 28.04c.05-.15.12-.29.22-.4a.85.85 0 0 1 .23-.2.77.77 0 0 1 .26-.09c.13 0 .25 0 .4.05a.83.83 0 0 1 .53.43c.1.2.1.44.03.73a.95.95 0 0 1-.44.57.8.8 0 0 1-.66.05.85.85 0 0 1-.54-.42.94.94 0 0 1-.03-.72Z"/>
    <path fill="#fff" d="M45.5 28.15c-.05.19-.06.35 0 .48.07.13.15.2.3.26.12.04.25.02.38-.05s.2-.2.27-.41c.06-.2.06-.35 0-.48a.45.45 0 0 0-.28-.25.46.46 0 0 0-.39.04c-.13.07-.21.2-.28.4Z"/>
    <path fill="#309E3A" d="m48.64 30.54.82-1.59.68.35c.13.06.24.14.34.24.07.07.1.14.1.24 0 .1 0 .2-.05.29a.49.49 0 0 1-.25.25.7.7 0 0 1-.4-.02c.05.07.08.15.1.21.03.08.04.2.06.36l.02.41-.38-.19-.05-.47-.04-.32c-.01-.05-.03-.1-.07-.13l-.15-.1-.06-.03-.35.67-.32-.17Z"/>
    <path fill="#fff" d="m49.43 29.78.25.13c.15.08.25.13.3.13.03 0 .08 0 .12-.02.04-.02.06-.06.09-.1.02-.06.04-.11.02-.16a.26.26 0 0 0-.09-.13 3.01 3.01 0 0 0-.23-.13l-.25-.13-.2.41Z"/>
    <path fill="#309E3A" d="M55.27 33.82c.09-.13.2-.25.32-.33.09-.06.19-.1.29-.12a.7.7 0 0 1 .28 0c.13.03.24.08.36.15a.84.84 0 0 1 .38.57 1 1 0 0 1-.18.7.94.94 0 0 1-.58.43.83.83 0 0 1-.66-.15.84.84 0 0 1-.39-.56.95.95 0 0 1 .18-.7Z"/>
    <path fill="#fff" d="M55.6 34.02c-.13.17-.17.32-.15.47a.46.46 0 0 0 .2.32c.14.09.26.11.4.07a.68.68 0 0 0 .36-.3c.12-.18.17-.34.14-.47a.5.5 0 0 0-.2-.33.42.42 0 0 0-.38-.06c-.13.02-.26.13-.39.3h.01Z"/>
    <path fill="#309E3A" d="m39.35 26.88.3-1.26.92.22-.04.2-.68-.15-.06.28.63.14-.06.22-.62-.15-.08.34.7.17-.05.2-.96-.21Z"/>
  </g>
  <defs>
    <clipPath id="a">
      <rect width="81.97" height="61.48" x=".7" y=".68" fill="#fff" rx="15.37"/>
    </clipPath>
  </defs>
</svg>
