<svg xmlns="http://www.w3.org/2000/svg" fill="none" viewBox="0 0 176 39">
  <path fill="#BEFF06" d="M51.48 28.22a12.7 12.7 0 1 1 0-17.95l-3.51 3.5c-7.2-7.18-18.11 3.74-10.92 10.93a7.72 7.72 0 0 0 10.92 0l3.51 3.52Z"/>
  <path fill="#fff" d="M147.46 28.22a12.7 12.7 0 1 1 0-17.95l-3.52 3.5c-7.19-7.18-18.1 3.74-10.92 10.93a7.72 7.72 0 0 0 10.92 0l3.52 3.52ZM121.27 6.62h-4.98v25.34h4.98V6.62ZM175.6 6.44l-15.4 12.72 15.48 12.8h-7.8l-10.92-9.03v9.02H152V0h4.97v15.4l10.84-8.96h7.8Z"/>
  <path fill="#BEFF06" d="M25.39 19.24v12.72H20.4V19.24a7.72 7.72 0 1 0-7.72 7.72v4.98a12.7 12.7 0 1 1 12.7-12.7Z"/>
  <circle cx="12.61" cy="19.71" r="2.76" fill="#BEFF06"/>
  <path fill="#BEFF06" d="M60.9 17.04h15.9a8.25 8.25 0 0 0-15.9 0Zm15.73 4.98H61.08a8.25 8.25 0 0 0 14.42 2.1h5.64a13.2 13.2 0 1 1 .64-2.11h-5.15Z"/>
  <path fill="#fff" d="M99.2 27.05a7.72 7.72 0 1 0-7.72-7.8v19.32h-4.97V19.33a12.7 12.7 0 1 1 12.7 12.7v-4.98Z"/>
</svg>
